<?xml version="1.0" encoding="UTF-8"?>
<svg version="1.1" xmlns="http://www.w3.org/2000/svg" width="170" height="170">
<path d="M0 0 C56.1 0 112.2 0 170 0 C170 56.1 170 112.2 170 170 C113.9 170 57.8 170 0 170 C0 113.9 0 57.8 0 0 Z " fill="#0C0B0D" transform="translate(0,0)"/>
<path d="M0 0 C1.36705078 -0.02320313 1.36705078 -0.02320313 2.76171875 -0.046875 C8.93964028 -0.011216 12.33040402 1.18770374 17.5 4.5 C20.22897167 4.00845917 20.22897167 4.00845917 22.5 2.5 C27.06942402 -0.1218105 31.21981886 0.16890267 36.375 0.1875 C37.26058594 0.17138672 38.14617187 0.15527344 39.05859375 0.13867188 C44.31776886 0.13475297 47.91383265 0.63175342 52.5 3.5 C52.5 7.13 52.5 10.76 52.5 14.5 C54.15 14.5 55.8 14.5 57.5 14.5 C57.5 16.15 57.5 17.8 57.5 19.5 C58.82 19.5 60.14 19.5 61.5 19.5 C61.93982527 26.53720431 60.57590604 32.4355294 55.828125 37.84375 C54.81410536 38.90742524 53.78784596 39.95955942 52.75 41 C51.73316015 42.05090923 50.71754907 43.10300868 49.703125 44.15625 C49.175979 44.68283203 48.64883301 45.20941406 48.10571289 45.75195312 C46.42804292 47.50031598 46.42804292 47.50031598 44.98608398 49.66992188 C42.53295946 53.0520957 40.87665654 55.18826798 36.69677734 56.13476562 C33.44908202 56.28674014 30.30715467 56.20026355 27.0625 56 C25.3928418 55.94585937 25.3928418 55.94585937 23.68945312 55.890625 C20.95603903 55.79677387 18.22984587 55.66565759 15.5 55.5 C18.48606337 50.86511034 21.53610845 47.28371466 25.5 43.5 C22.05930376 41.20620251 20.77709699 40.5 16.5 40.5 C15.05191044 41.8778501 15.05191044 41.8778501 13.890625 43.78125 C5.90484477 54.69393929 5.90484477 54.69393929 -0.50097656 56.21044922 C-7.52463189 56.82646696 -14.51188737 56.33971035 -21.5 55.5 C-21.09442871 55.02876709 -20.68885742 54.55753418 -20.27099609 54.07202148 C-19.73555176 53.44884033 -19.20010742 52.82565918 -18.6484375 52.18359375 C-18.11911621 51.56798584 -17.58979492 50.95237793 -17.04443359 50.31811523 C-15.14666678 48.0840543 -13.31401125 45.80239889 -11.5 43.5 C-12.20125 43.17 -12.9025 42.84 -13.625 42.5 C-18.8834951 38.84191645 -22.5098712 33.58094912 -24.5 27.5 C-25.42907529 19.31931112 -24.22228184 13.68064711 -19.75 6.8125 C-13.72958472 0.62485097 -8.29280115 -0.14075476 0 0 Z " fill="#C67EFA" transform="translate(69.5,37.5)"/>
<path d="M0 0 C-0.556875 0.4125 -1.11375 0.825 -1.6875 1.25 C-2.450625 1.8275 -3.21375 2.405 -4 3 C-4.825 3.53625 -5.65 4.0725 -6.5 4.625 C-11.36983789 9.251346 -13.22364081 14.79209478 -13.5625 21.4375 C-13.27614055 28.71921167 -10.4973784 34.66911349 -5.1875 39.625 C-4.465625 40.07875 -3.74375 40.5325 -3 41 C-1.02 39.02 0.96 37.04 3 35 C1.87070941 32.45909617 0.8666029 30.8666029 -1.125 28.875 C-3.49980163 25.2336375 -3.70008602 22.67441815 -3.5078125 18.38671875 C-2.95411201 15.78432644 -2.39058669 14.65659685 -0.5 12.8125 C3.2404838 10.87546375 5.05157403 10.39097898 9.09375 11.23828125 C11.73363717 12.2931542 13.58340942 13.82013418 15.21948242 16.1418457 C16.75304242 19.79274504 16.12186438 23.28801066 15 27 C13.0652046 29.98580863 10.67947453 32.35038575 8.125 34.8125 C6.74854077 36.19255653 5.37355265 37.57408181 4 38.95703125 C3.319375 39.63330566 2.63875 40.30958008 1.9375 41.00634766 C0.15300657 42.84255901 -1.49843282 44.72326066 -3.125 46.69921875 C-9.69797471 54.64265583 -9.69797471 54.64265583 -13.67578125 55.734375 C-16.1875 55.75 -16.1875 55.75 -20 55 C-19.61328125 54.55269531 -19.2265625 54.10539062 -18.828125 53.64453125 C-15.81609925 50.1478974 -12.85678969 46.62592537 -10 43 C-10.70125 42.67 -11.4025 42.34 -12.125 42 C-17.3834951 38.34191645 -21.0098712 33.08094912 -23 27 C-23.92907529 18.81931112 -22.72228184 13.18064711 -18.25 6.3125 C-12.56629109 0.47091028 -7.87329265 -0.64271777 0 0 Z " fill="#A149F1" transform="translate(68,38)"/>
<path d="M0 0 C0.33 0 0.66 0 1 0 C1.33 2.64 1.66 5.28 2 8 C4.475 8.495 4.475 8.495 7 9 C7 10.65 7 12.3 7 14 C8.32 14 9.64 14 11 14 C11.43982527 21.03720431 10.07590604 26.9355294 5.328125 32.34375 C4.31500176 33.40827907 3.28850075 34.46021298 2.25 35.5 C1.15555326 36.61653381 0.06309307 37.73501842 -1.02734375 38.85546875 C-1.54796387 39.38962402 -2.06858398 39.9237793 -2.60498047 40.47412109 C-4.40155777 42.43922578 -5.81687698 44.61397321 -7.3125 46.8125 C-9.7546179 49.7393599 -10.8716883 49.98359424 -14.7578125 50.48046875 C-18.53269174 50.57783049 -22.2420569 50.34822639 -26 50 C-22.02666485 44.21766674 -17.48382869 39.35943006 -12.46484375 34.46875 C-9.64898695 31.64843067 -7.08771553 28.68041503 -4.5703125 25.59375 C-2.85125466 23.84903458 -1.23542277 22.96771549 1 22 C0.97679688 21.37351562 0.95359375 20.74703125 0.9296875 20.1015625 C0.91164063 19.28429687 0.89359375 18.46703125 0.875 17.625 C0.85179688 16.81289063 0.82859375 16.00078125 0.8046875 15.1640625 C1 13 1 13 3 11 C1.9790625 10.2265625 1.9790625 10.2265625 0.9375 9.4375 C-1 7 -1 7 -0.75 3.25 C-0.5025 2.1775 -0.255 1.105 0 0 Z " fill="#C680F9" transform="translate(120,43)"/>
<path d="M0 0 C2.64066303 1.05518297 4.49045089 2.58106232 6.12402344 4.90576172 C7.66900535 8.57147723 7.06052747 12.03873025 5.90625 15.76171875 C3.82499477 18.93133029 1.29710185 21.49153069 -1.40625 24.13671875 C-2.08365234 24.83410156 -2.76105469 25.53148438 -3.45898438 26.25 C-6.51798608 29.36581601 -9.55099486 32.19821021 -13.09375 34.76171875 C-11.81653474 29.76896818 -9.92044043 27.18559967 -6.09375 23.76171875 C-7.22304059 21.22081492 -8.2271471 19.62832165 -10.21875 17.63671875 C-12.59355163 13.99535625 -12.79383602 11.4361369 -12.6015625 7.1484375 C-12.04786201 4.54604519 -11.48433669 3.4183156 -9.59375 1.57421875 C-5.8532662 -0.3628175 -4.04217597 -0.84730227 0 0 Z " fill="#740FDF" transform="translate(77.09375,49.23828125)"/>
<path d="M0 0 C2.90058372 -0.30344568 5.54074295 -0.41805667 8.4375 -0.375 C9.21416016 -0.38660156 9.99082031 -0.39820312 10.79101562 -0.41015625 C16.49842031 -0.38066062 16.49842031 -0.38066062 18.72363281 1.30810547 C20.81091756 4.07491559 20.39154262 7.18020988 20.3125 10.5 C20.31733398 11.51513672 20.31733398 11.51513672 20.32226562 12.55078125 C20.28230168 16.23473014 20.09194697 17.86207954 18 21 C16.12060547 21.34057617 16.12060547 21.34057617 13.8671875 21.29296875 C13.06152344 21.28330078 12.25585938 21.27363281 11.42578125 21.26367188 C10.58402344 21.23853516 9.74226563 21.21339844 8.875 21.1875 C7.60076172 21.16719727 7.60076172 21.16719727 6.30078125 21.14648438 C4.20025163 21.11108219 2.10004707 21.05727401 0 21 C0.66 19.68 1.32 18.36 2 17 C6.62 17 11.24 17 16 17 C16 15.68 16 14.36 16 13 C14.86820313 13.03480469 13.73640625 13.06960937 12.5703125 13.10546875 C11.08855647 13.13360336 9.60678444 13.16090387 8.125 13.1875 C7.00544922 13.22520508 7.00544922 13.22520508 5.86328125 13.26367188 C3.6953125 13.29296875 3.6953125 13.29296875 0 13 C-2.45811625 9.31282562 -2.31118164 7.35654296 -2 3 C-1.34 2.01 -0.68 1.02 0 0 Z " fill="#EEEEEE" transform="translate(16,106)"/>
<path d="M0 0 C1.08667969 -0.01740234 1.08667969 -0.01740234 2.1953125 -0.03515625 C5.04692441 -0.01937242 7.41795644 0.07536811 9.98046875 1.39453125 C11.63515952 4.60881562 11.39041886 7.912451 11.3125 11.4375 C11.31733398 12.53674805 11.31733398 12.53674805 11.32226562 13.65820312 C11.26721939 19.10778061 11.26721939 19.10778061 9 21.375 C7.12060547 21.60205078 7.12060547 21.60205078 4.8671875 21.5703125 C4.06152344 21.56386719 3.25585938 21.55742188 2.42578125 21.55078125 C1.58402344 21.53402344 0.74226563 21.51726562 -0.125 21.5 C-1.39923828 21.48646484 -1.39923828 21.48646484 -2.69921875 21.47265625 C-4.79959884 21.44905647 -6.89983444 21.41318483 -9 21.375 C-7.91796875 19.390625 -7.91796875 19.390625 -6 17.375 C-2.86328125 16.984375 -2.86328125 16.984375 0.6875 17.125 C1.86699219 17.16109375 3.04648437 17.1971875 4.26171875 17.234375 C5.61716797 17.30398437 5.61716797 17.30398437 7 17.375 C7 16.055 7 14.735 7 13.375 C5.95199219 13.40980469 4.90398438 13.44460937 3.82421875 13.48046875 C2.44532853 13.50860937 1.06642098 13.53590924 -0.3125 13.5625 C-1.34793945 13.60020508 -1.34793945 13.60020508 -2.40429688 13.63867188 C-7.48936074 13.71236845 -7.48936074 13.71236845 -9.95703125 12.08203125 C-11.72557834 9.18744293 -11.35187635 6.65917924 -11 3.375 C-8.51104904 -0.74791877 -4.30308289 -0.06891058 0 0 Z " fill="#F7F7F7" transform="translate(50,105.625)"/>
<path d="M0 0 C2.69990662 1.79993774 4.5418865 3.083773 6 6 C6.76465614 10.18823024 6.9024332 13.62981347 4.5078125 17.265625 C2.73500329 19.2517598 0.88179429 21.11820571 -1 23 C-1.66 23.99 -2.32 24.98 -3 26 C-6.85259708 24.71580097 -7.08926942 23.51574428 -9 20 C-9.35578125 19.44699219 -9.7115625 18.89398438 -10.078125 18.32421875 C-12.55840101 14.38547057 -13.88658274 11.62993208 -13 7 C-9.53085155 1.52104968 -6.53127237 -0.64032082 0 0 Z " fill="#7607EC" transform="translate(114,49)"/>
<path d="M0 0 C4.29 0.33 8.58 0.66 13 1 C13 2.32 13 3.64 13 5 C13.99 5 14.98 5 16 5 C16 4.34 16 3.68 16 3 C17.65 3 19.3 3 21 3 C21 3.66 21 4.32 21 5 C20.34 5 19.68 5 19 5 C19 6.65 19 8.3 19 10 C18.34 10 17.68 10 17 10 C17 10.66 17 11.32 17 12 C16.34 12 15.68 12 15 12 C15.33 13.98 15.66 15.96 16 18 C17.65 18.33 19.3 18.66 21 19 C21 20.32 21 21.64 21 23 C18.69 23 16.38 23 14 23 C14 21.68 14 20.36 14 19 C11.03 19.33 8.06 19.66 5 20 C5 18.35 5 16.7 5 15 C3.35 15 1.7 15 0 15 C0 10.05 0 5.1 0 0 Z " fill="#1D082B" transform="translate(122,37)"/>
<path d="M0 0 C1.32 0 2.64 0 4 0 C4 6.93 4 13.86 4 21 C2.35 21 0.7 21 -1 21 C-1 18.36 -1 15.72 -1 13 C-4.96 13 -8.92 13 -13 13 C-13 15.64 -13 18.28 -13 21 C-15.46875 19.41015625 -15.46875 19.41015625 -18 17 C-18.59375 13.87109375 -18.59375 13.87109375 -18.5 10.4375 C-18.4896875 9.30183594 -18.479375 8.16617188 -18.46875 6.99609375 C-18 4 -18 4 -16.59375 2.09765625 C-15 1 -15 1 -13 1 C-13 3.64 -13 6.28 -13 9 C-8.71 9 -4.42 9 0 9 C0 6.03 0 3.06 0 0 Z " fill="#EEECEE" transform="translate(149,106)"/>
<path d="M0 0 C0.53625 0.721875 1.0725 1.44375 1.625 2.1875 C4.2092888 5.247842 6.87248014 7.51220011 10 10 C11.65 8.02 13.3 6.04 15 4 C15.99 4.99 16.98 5.98 18 7 C16.77023438 8.21236328 16.77023438 8.21236328 15.515625 9.44921875 C14.42694863 10.52850998 13.3384145 11.60794469 12.25 12.6875 C11.71117188 13.21794922 11.17234375 13.74839844 10.6171875 14.29492188 C8.15331924 16.74376655 5.95962175 19.05544476 3.90625 21.875 C2 24 2 24 -0.359375 24.48828125 C-1.14828125 24.43027344 -1.9371875 24.37226562 -2.75 24.3125 C-3.94882813 24.24482422 -3.94882813 24.24482422 -5.171875 24.17578125 C-5.77515625 24.11777344 -6.3784375 24.05976562 -7 24 C-4.11954533 19.34695784 -0.96084779 15.78080926 3 12 C1.824375 11.3503125 1.824375 11.3503125 0.625 10.6875 C-2 9 -2 9 -4 6 C-2.68 4.02 -1.36 2.04 0 0 Z " fill="#7E1FE4" transform="translate(92,69)"/>
<path d="M0 0 C1.18916016 0.02707031 1.18916016 0.02707031 2.40234375 0.0546875 C4.35208348 0.10166918 6.30119878 0.17340956 8.25 0.25 C7.16796875 2.234375 7.16796875 2.234375 5.25 4.25 C0.86723375 4.79579904 -3.31807076 4.42552195 -7.75 4.25 C-7.75 8.54 -7.75 12.83 -7.75 17.25 C-5.8525 17.1675 -3.955 17.085 -2 17 C3.66153846 16.75384615 3.66153846 16.75384615 6.640625 19.265625 C7.17171875 19.92046875 7.7028125 20.5753125 8.25 21.25 C5.31195004 21.33086376 2.37611925 21.3904283 -0.5625 21.4375 C-1.39587891 21.46263672 -2.22925781 21.48777344 -3.08789062 21.51367188 C-4.29155273 21.52817383 -4.29155273 21.52817383 -5.51953125 21.54296875 C-6.62711792 21.56653442 -6.62711792 21.56653442 -7.75708008 21.59057617 C-10.33714163 21.14966157 -11.19364959 20.3239302 -12.75 18.25 C-13.18359375 15.03515625 -13.18359375 15.03515625 -13.1875 11.3125 C-13.20683594 10.08660156 -13.22617188 8.86070313 -13.24609375 7.59765625 C-12.75 4.25 -12.75 4.25 -11.26953125 1.82421875 C-7.54962641 -0.50000087 -4.28915649 -0.18493875 0 0 Z " fill="#FCFAFC" transform="translate(121.75,105.75)"/>
<path d="M0 0 C0.556875 0.28875 1.11375 0.5775 1.6875 0.875 C4.08494645 2.0413253 6.51596939 3.0339881 9 4 C8.61328125 4.44730469 8.2265625 4.89460938 7.828125 5.35546875 C7.30734375 5.96003906 6.7865625 6.56460938 6.25 7.1875 C5.48429687 8.07501953 5.48429687 8.07501953 4.703125 8.98046875 C2.75955818 11.28511106 0.88331086 13.64586143 -1 16 C6.92 16 14.84 16 23 16 C23 16.66 23 17.32 23 18 C20.04502142 18.85031102 17.41081128 19.12847103 14.33984375 19.1328125 C13.46392578 19.13410156 12.58800781 19.13539062 11.68554688 19.13671875 C10.77869141 19.13285156 9.87183594 19.12898438 8.9375 19.125 C8.02677734 19.12886719 7.11605469 19.13273437 6.17773438 19.13671875 C5.30310547 19.13542969 4.42847656 19.13414063 3.52734375 19.1328125 C2.73062256 19.13168457 1.93390137 19.13055664 1.11303711 19.12939453 C-1 19 -1 19 -4 18 C-3.979375 17.236875 -3.95875 16.47375 -3.9375 15.6875 C-3.87057159 12.89814214 -3.87057159 12.89814214 -5 10 C-5.7425 10.763125 -6.485 11.52625 -7.25 12.3125 C-13.35480211 18.27855661 -17.54444345 18.87350721 -26 19 C-30.34999592 18.80122229 -34.66958678 18.45399493 -39 18 C-39 17.67 -39 17.34 -39 17 C-38.30962646 17.00636475 -37.61925293 17.01272949 -36.90795898 17.01928711 C-33.75006414 17.02802447 -30.59505723 16.9832087 -27.4375 16.9375 C-26.35146484 16.94845703 -25.26542969 16.95941406 -24.14648438 16.97070312 C-18.66334128 16.85404051 -14.9735799 16.69366396 -10.96484375 12.71484375 C-9.94896061 11.49910458 -8.95727763 10.2624024 -8 9 C-6.92105469 7.81277344 -6.92105469 7.81277344 -5.8203125 6.6015625 C-5.26085937 5.94929688 -4.70140625 5.29703125 -4.125 4.625 C-1.02777778 1.02777778 -1.02777778 1.02777778 0 0 Z " fill="#0E081C" transform="translate(87,76)"/>
<path d="M0 0 C1.08667969 -0.01740234 1.08667969 -0.01740234 2.1953125 -0.03515625 C5.24199353 -0.0182927 7.44774851 0.00433991 10.01953125 1.73046875 C11 3.375 11 3.375 10.6875 6.0625 C10.460625 6.825625 10.23375 7.58875 10 8.375 C9.34 8.045 8.68 7.715 8 7.375 C7.67 8.035 7.34 8.695 7 9.375 C4.89646505 9.4560206 2.79204048 9.51419907 0.6875 9.5625 C-1.07013672 9.61470703 -1.07013672 9.61470703 -2.86328125 9.66796875 C-6 9.375 -6 9.375 -7.91796875 7.86328125 C-8.27503906 7.37214844 -8.63210937 6.88101563 -9 6.375 C-9.66 7.695 -10.32 9.015 -11 10.375 C-11.36168373 3.98525402 -11.36168373 3.98525402 -9.98828125 1.66796875 C-6.86354353 -0.36403161 -3.60175318 -0.05767932 0 0 Z " fill="#F1F1F1" transform="translate(50,105.625)"/>
<path d="M0 0 C6.93 0 13.86 0 21 0 C21 1.32 21 2.64 21 4 C18.36 4 15.72 4 13 4 C13 9.61 13 15.22 13 21 C11.35 21 9.7 21 8 21 C8 15.39 8 9.78 8 4 C5.69 4 3.38 4 1 4 C0.67 2.68 0.34 1.36 0 0 Z " fill="#EBEBEA" transform="translate(64,106)"/>
<path d="M0 0 C5.94 0 11.88 0 18 0 C18 1.32 18 2.64 18 4 C13.71 4 9.42 4 5 4 C5 5.32 5 6.64 5 8 C9.29 8 13.58 8 18 8 C18.33 9.32 18.66 10.64 19 12 C12.73 12 6.46 12 0 12 C0 8.04 0 4.08 0 0 Z " fill="#F9F7F8" transform="translate(88,115)"/>
<path d="M0 0 C1.32 0.33 2.64 0.66 4 1 C4.05402274 3.10388569 4.09280256 5.20816714 4.125 7.3125 C4.14820312 8.48425781 4.17140625 9.65601562 4.1953125 10.86328125 C4 14 4 14 2 17 C0.12060547 17.34057617 0.12060547 17.34057617 -2.1328125 17.29296875 C-2.93847656 17.28330078 -3.74414062 17.27363281 -4.57421875 17.26367188 C-5.41597656 17.23853516 -6.25773437 17.21339844 -7.125 17.1875 C-8.39923828 17.16719727 -8.39923828 17.16719727 -9.69921875 17.14648438 C-11.79974837 17.11108219 -13.89995293 17.05727401 -16 17 C-15.34 15.68 -14.68 14.36 -14 13 C-9.38 13 -4.76 13 0 13 C0 11.35 0 9.7 0 8 C-3.63 8 -7.26 8 -11 8 C-11.33 7.01 -11.66 6.02 -12 5 C-8.04 5 -4.08 5 0 5 C0 3.35 0 1.7 0 0 Z " fill="#FAFAFA" transform="translate(32,110)"/>
<path d="M0 0 C1.32 0.33 2.64 0.66 4 1 C3.01 2.485 3.01 2.485 2 4 C1.70547416 6.38677076 1.5071783 8.78626094 1.375 11.1875 C1.30023438 12.45980469 1.22546875 13.73210937 1.1484375 15.04296875 C1.09945312 16.01878906 1.05046875 16.99460937 1 18 C0.01 18.33 -0.98 18.66 -2 19 C-2 18.34 -2 17.68 -2 17 C-6.29 17 -10.58 17 -15 17 C-15 15.68 -15 14.36 -15 13 C-10.71 13 -6.42 13 -2 13 C-2 11.35 -2 9.7 -2 8 C-7.94 8 -13.88 8 -20 8 C-20.33 7.01 -20.66 6.02 -21 5 C-11.1 4.505 -11.1 4.505 -1 4 C-0.67 2.68 -0.34 1.36 0 0 Z " fill="#030202" transform="translate(108,106)"/>
<path d="M0 0 C2.86724686 0.57344937 3.8614515 0.8614515 6 3 C6.75436164 7.95598056 6.72634458 11.8650866 4 16.125 C3.34 16.74375 2.68 17.3625 2 18 C-1 17 -1 17 -2.6875 14.3125 C-4.08651007 10.78166507 -4.55797946 8.74643352 -4 5 C-2 2.125 -2 2.125 0 0 Z " fill="#0F0A0E" transform="translate(105,51)"/>
<path d="M0 0 C1.9375 0.875 1.9375 0.875 3.9375 3.875 C4.48270806 6.93964321 4.49020563 9.81097168 3.9375 12.875 C1.4375 15.9375 1.4375 15.9375 -1.0625 17.875 C-3.50585512 15.58435458 -4.92607446 13.7768446 -5.43359375 10.421875 C-5.60372784 3.57647966 -5.60372784 3.57647966 -3.6640625 1.0625 C-2.0625 -0.125 -2.0625 -0.125 0 0 Z " fill="#140623" transform="translate(70.0625,51.125)"/>
<path d="M0 0 C4.29 0.33 8.58 0.66 13 1 C13 2.32 13 3.64 13 5 C13.99 5 14.98 5 16 5 C16 4.34 16 3.68 16 3 C17.65 3 19.3 3 21 3 C21 3.66 21 4.32 21 5 C20.34 5 19.68 5 19 5 C19 6.65 19 8.3 19 10 C16.69 10 14.38 10 12 10 C12 8.35 12 6.7 12 5 C6.06 5.495 6.06 5.495 0 6 C0 4.02 0 2.04 0 0 Z " fill="#6E3C91" transform="translate(122,37)"/>
<path d="M0 0 C0.33 0.66 0.66 1.32 1 2 C1.66 2 2.32 2 3 2 C2.15678112 9.74102576 -4.84691558 15.33922357 -10.5625 20.125 C-11.366875 20.74375 -12.17125 21.3625 -13 22 C-12.01339774 18.14328207 -11.23783583 16.2267737 -8.3125 13.4375 C-7.549375 12.633125 -6.78625 11.82875 -6 11 C-6.32852082 8.44063441 -6.32852082 8.44063441 -7 6 C-5.8125 3.6875 -5.8125 3.6875 -4 2 C-2.68 2 -1.36 2 0 2 C0 1.34 0 0.68 0 0 Z " fill="#7816E6" transform="translate(77,62)"/>
<path d="M0 0 C1.18916016 0.02707031 1.18916016 0.02707031 2.40234375 0.0546875 C4.35208348 0.10166918 6.30119878 0.17340956 8.25 0.25 C7.16796875 2.234375 7.16796875 2.234375 5.25 4.25 C2.11328125 4.640625 2.11328125 4.640625 -1.4375 4.5 C-3.20673828 4.44585937 -3.20673828 4.44585937 -5.01171875 4.390625 C-6.36716797 4.32101563 -6.36716797 4.32101563 -7.75 4.25 C-7.75 7.22 -7.75 10.19 -7.75 13.25 C-8.08 13.25 -8.41 13.25 -8.75 13.25 C-9.08 10.94 -9.41 8.63 -9.75 6.25 C-11.48956658 7.98956658 -11.12190386 10.4436622 -11.3125 12.8125 C-11.39628906 13.82441406 -11.48007813 14.83632812 -11.56640625 15.87890625 C-11.62699219 16.66136719 -11.68757813 17.44382812 -11.75 18.25 C-12.08 18.25 -12.41 18.25 -12.75 18.25 C-12.85823773 16.00106046 -12.93569645 13.75062425 -13 11.5 C-13.04640625 10.24703125 -13.0928125 8.9940625 -13.140625 7.703125 C-12.75 4.25 -12.75 4.25 -11.28125 1.8125 C-7.55074075 -0.49028349 -4.28875541 -0.18492146 0 0 Z " fill="#DFDDDE" transform="translate(121.75,105.75)"/>
<path d="M0 0 C0.33 1.65 0.66 3.3 1 5 C3.475 5.495 3.475 5.495 6 6 C6 7.32 6 8.64 6 10 C3.69 10 1.38 10 -1 10 C-1 8.68 -1 7.36 -1 6 C-5.455 6.495 -5.455 6.495 -10 7 C-10 5.35 -10 3.7 -10 2 C-11.65 2 -13.3 2 -15 2 C-15 1.67 -15 1.34 -15 1 C-9.94997778 -0.03590199 -5.12583611 -0.10251672 0 0 Z " fill="#311848" transform="translate(137,50)"/>
<path d="M0 0 C1.32 1.32 2.64 2.64 4 4 C2.43926002 7.51166495 0.83930448 10.37910355 -2 13 C-5.04397407 13.42584093 -7.94738837 13.29352035 -11 13 C-7.92877136 7.96318503 -4.27083334 4.05489233 0 0 Z " fill="#8A34DE" transform="translate(96,80)"/>
<path d="M0 0 C-1.94245644 1.29497096 -3.90015107 2.56748654 -5.875 3.8125 C-8.95009784 5.96506849 -11.42811437 8.27682698 -14 11 C-15.32 9.02 -16.64 7.04 -18 5 C-12.02597761 0.32758025 -7.51827663 -0.69328371 0 0 Z " fill="#7515E0" transform="translate(106,38)"/>
<path d="M0 0 C6.27 0 12.54 0 19 0 C18.67 1.32 18.34 2.64 18 4 C12.06 4 6.12 4 0 4 C0 2.68 0 1.36 0 0 Z " fill="#F7F6F5" transform="translate(88,106)"/>
<path d="M0 0 C1.39456452 0.00667256 2.78911118 0.01863093 4.18359375 0.03515625 C4.89451172 0.03966797 5.60542969 0.04417969 6.33789062 0.04882812 C8.09899388 0.06064761 9.86005411 0.07858362 11.62109375 0.09765625 C11.62109375 1.41765625 11.62109375 2.73765625 11.62109375 4.09765625 C7.33109375 4.09765625 3.04109375 4.09765625 -1.37890625 4.09765625 C-1.70890625 5.41765625 -2.03890625 6.73765625 -2.37890625 8.09765625 C-3.03890625 8.09765625 -3.69890625 8.09765625 -4.37890625 8.09765625 C-4.42132348 5.7647085 -4.41983562 3.43063058 -4.37890625 1.09765625 C-3.37890625 0.09765625 -3.37890625 0.09765625 0 0 Z " fill="#EBE9EA" transform="translate(94.37890625,114.90234375)"/>
<path d="M0 0 C2.56687367 3.8503105 1.83288724 5.58569763 1 10 C0.67 9.34 0.34 8.68 0 8 C-4.29 8 -8.58 8 -13 8 C-13 6.68 -13 5.36 -13 4 C-8.71 4 -4.42 4 0 4 C0 2.68 0 1.36 0 0 Z " fill="#070506" transform="translate(106,115)"/>
<path d="M0 0 C1.65322266 0.01740234 1.65322266 0.01740234 3.33984375 0.03515625 C4.99693359 0.04869141 4.99693359 0.04869141 6.6875 0.0625 C7.54214844 0.07410156 8.39679687 0.08570312 9.27734375 0.09765625 C9.60734375 1.74765625 9.93734375 3.39765625 10.27734375 5.09765625 C5.98734375 5.09765625 1.69734375 5.09765625 -2.72265625 5.09765625 C-3.05265625 3.77765625 -3.38265625 2.45765625 -3.72265625 1.09765625 C-2.72265625 0.09765625 -2.72265625 0.09765625 0 0 Z " fill="#2D2D2D" transform="translate(46.72265625,109.90234375)"/>
<path d="M0 0 C1.65322266 0.01740234 1.65322266 0.01740234 3.33984375 0.03515625 C4.99693359 0.04869141 4.99693359 0.04869141 6.6875 0.0625 C7.54214844 0.07410156 8.39679687 0.08570312 9.27734375 0.09765625 C9.60734375 1.74765625 9.93734375 3.39765625 10.27734375 5.09765625 C5.98734375 5.09765625 1.69734375 5.09765625 -2.72265625 5.09765625 C-3.05265625 3.77765625 -3.38265625 2.45765625 -3.72265625 1.09765625 C-2.72265625 0.09765625 -2.72265625 0.09765625 0 0 Z " fill="#2C2C2C" transform="translate(21.72265625,109.90234375)"/>
<path d="M0 0 C0.33 0 0.66 0 1 0 C1.125 3.375 1.125 3.375 1 7 C0.34 7.66 -0.32 8.32 -1 9 C-1.99 9 -2.98 9 -4 9 C-3.85973717 11.31284456 -3.71264442 13.62527591 -3.5625 15.9375 C-3.48128906 17.22527344 -3.40007813 18.51304688 -3.31640625 19.83984375 C-3.35080812 22.86023957 -3.35080812 22.86023957 -2 24 C-1.95936168 25.66617115 -1.957279 27.33388095 -2 29 C-6.51665575 23.30508622 -6.56332118 18.06622181 -6 11 C-4.89750412 6.84092933 -2.84407069 3.23189852 0 0 Z " fill="#9F58D7" transform="translate(51,43)"/>
<path d="M0 0 C0 4.53846154 0 4.53846154 -1 7 C-2.63790712 8.04644066 -4.31008021 9.0398183 -6 10 C-7.70496537 11.62746694 -9.37897032 13.28891311 -11 15 C-13.67100088 17.67100088 -20.43437909 16.87663588 -24 17 C-28.35081781 16.8110344 -32.66930557 16.45402442 -37 16 C-37 15.67 -37 15.34 -37 15 C-36.30962646 15.00636475 -35.61925293 15.01272949 -34.90795898 15.01928711 C-31.75006414 15.02802447 -28.59505723 14.9832087 -25.4375 14.9375 C-24.35146484 14.94845703 -23.26542969 14.95941406 -22.14648438 14.97070312 C-16.63888169 14.85352009 -12.96308016 14.68323341 -8.9375 10.6875 C-7.92985987 9.48156492 -6.94662342 8.25440111 -6 7 C-5.34128906 6.26910156 -4.68257812 5.53820312 -4.00390625 4.78515625 C-3.29041016 3.93244141 -3.29041016 3.93244141 -2.5625 3.0625 C-1.716875 2.051875 -0.87125 1.04125 0 0 Z " fill="#13021E" transform="translate(85,78)"/>
<path d="M0 0 C0.33 0 0.66 0 1 0 C1.61369399 4.20818739 1.90772754 7.61339258 -0.48828125 11.2734375 C-2.26534145 13.25285445 -4.11966789 15.11966789 -6 17 C-6.66 17.99 -7.32 18.98 -8 20 C-8.99 19.67 -9.98 19.34 -11 19 C-12.1875 16.4375 -12.1875 16.4375 -13 14 C-11.68 13.01 -10.36 12.02 -9 11 C-9 11.66 -9 12.32 -9 13 C-6.12909413 12.60401298 -5.21084873 12.2676157 -3.375 9.9375 C-2.92125 9.298125 -2.4675 8.65875 -2 8 C-1.34 8 -0.68 8 0 8 C0 5.36 0 2.72 0 0 Z " fill="#7A10EA" transform="translate(119,55)"/>
<path d="M0 0 C0 2.64 0 5.28 0 8 C-0.99 8 -1.98 8 -3 8 C-2.34 9.32 -1.68 10.64 -1 12 C-0.67 12 -0.34 12 0 12 C0 14.64 0 17.28 0 20 C-2.46875 18.41015625 -2.46875 18.41015625 -5 16 C-5.59375 12.87109375 -5.59375 12.87109375 -5.5 9.4375 C-5.4896875 8.30183594 -5.479375 7.16617188 -5.46875 5.99609375 C-5 3 -5 3 -3.59375 1.09765625 C-2 0 -2 0 0 0 Z " fill="#EBE8EB" transform="translate(136,107)"/>
<path d="M0 0 C1.98 0.495 1.98 0.495 4 1 C5.52846661 4.05693322 5.23242445 6.62984547 5 10 C3.5 12.4375 3.5 12.4375 2 14 C2 13.34 2 12.68 2 12 C1.01 11.67 0.02 11.34 -1 11 C-0.67 7.37 -0.34 3.74 0 0 Z " fill="#0B0B0D" transform="translate(68,53)"/>
<path d="M0 0 C1.98 0 3.96 0 6 0 C2.69481766 8.34165067 2.69481766 8.34165067 0 10 C-2.6875 9.6875 -2.6875 9.6875 -5 9 C-4.1875 7.0625 -4.1875 7.0625 -3 5 C-2.01 4.67 -1.02 4.34 0 4 C0 2.68 0 1.36 0 0 Z " fill="#9631F4" transform="translate(60,80)"/>
<path d="M0 0 C-0.556875 0.4125 -1.11375 0.825 -1.6875 1.25 C-5.30930941 3.99082875 -8.86553683 6.70056508 -12 10 C-12 8.35 -12 6.7 -12 5 C-13.32 4.67 -14.64 4.34 -16 4 C-10.45834744 0.22695996 -6.65545792 -0.54330269 0 0 Z " fill="#9336EC" transform="translate(68,38)"/>
<path d="M0 0 C0.33 1.32 0.66 2.64 1 4 C0.34 4.45375 -0.32 4.9075 -1 5.375 C-1.99 6.179375 -1.99 6.179375 -3 7 C-3 7.66 -3 8.32 -3 9 C-2.01 9.66 -1.02 10.32 0 11 C-2 13 -2 13 -4.1640625 13.1953125 C-5.38222656 13.16050781 -5.38222656 13.16050781 -6.625 13.125 C-7.44226562 13.10695313 -8.25953125 13.08890625 -9.1015625 13.0703125 C-9.72804687 13.04710938 -10.35453125 13.02390625 -11 13 C-10.62488281 12.56429687 -10.24976563 12.12859375 -9.86328125 11.6796875 C-6.54140223 7.81392401 -3.25357073 3.92342352 0 0 Z " fill="#8540D0" transform="translate(59,80)"/>
<path d="M0 0 C0.99 0.99 1.98 1.98 3 3 C1.57189185 4.50894446 0.13218981 6.00692345 -1.3125 7.5 C-2.11300781 8.3353125 -2.91351563 9.170625 -3.73828125 10.03125 C-6 12 -6 12 -9 12 C-9.33 10.35 -9.66 8.7 -10 7 C-9.0925 6.773125 -8.185 6.54625 -7.25 6.3125 C-3.55111676 4.81872023 -2.22094342 3.24599423 0 0 Z " fill="#8627E8" transform="translate(107,73)"/>
<path d="M0 0 C0.33 0.66 0.66 1.32 1 2 C4.96 2 8.92 2 13 2 C12.01 3.485 12.01 3.485 11 5 C8.67708744 5.41171025 6.45006354 5.43871599 4.09375 5.49609375 C1.80153634 5.7900449 1.80153634 5.7900449 0.71875 8.03515625 C0.4815625 8.68355469 0.244375 9.33195312 0 10 C-1.58538318 7.48203847 -2.0373656 6.32134414 -1.6875 3.3125 C-1 1 -1 1 0 0 Z " fill="#FDFBFD" transform="translate(134,113)"/>
<path d="M0 0 C0.99 0 1.98 0 3 0 C3 5.28 3 10.56 3 16 C2.01 16 1.02 16 0 16 C0 10.72 0 5.44 0 0 Z " fill="#FCFCFC" transform="translate(73,111)"/>
<path d="M0 0 C4.29 0.33 8.58 0.66 13 1 C13 1.33 13 1.66 13 2 C11.35 2 9.7 2 8 2 C8 2.99 8 3.98 8 5 C5.36 5.33 2.72 5.66 0 6 C0 4.02 0 2.04 0 0 Z " fill="#6E408E" transform="translate(122,37)"/>
<path d="M0 0 C0.66 0.66 1.32 1.32 2 2 C4.10820797 1.6814823 4.10820797 1.6814823 6 1 C4.125 4.875 4.125 4.875 3 6 C1.48071962 6.07179964 -0.04167482 6.08392007 -1.5625 6.0625 C-2.38878906 6.05347656 -3.21507813 6.04445313 -4.06640625 6.03515625 C-4.70449219 6.02355469 -5.34257813 6.01195313 -6 6 C-3.375 1.125 -3.375 1.125 0 0 Z " fill="#9048D6" transform="translate(91,87)"/>
<path d="M0 0 C0.7425 0.61875 1.485 1.2375 2.25 1.875 C4.50515319 3.61761838 6.45655832 4.79349562 9 6 C7.69088122 7.50295185 6.37761608 9.00229311 5.0625 10.5 C4.33160156 11.3353125 3.60070313 12.170625 2.84765625 13.03125 C2.23792969 13.6809375 1.62820312 14.330625 1 15 C0.67 15 0.34 15 0 15 C0 13.35 0 11.7 0 10 C0.99 9.67 1.98 9.34 3 9 C2.44271087 5.65626525 1.64826111 2.96687001 0 0 Z " fill="#18032A" transform="translate(50,75)"/>
<path d="M0 0 C2.86724686 0.57344937 3.8614515 0.8614515 6 3 C6.75436164 7.95598056 6.72634458 11.8650866 4 16.125 C3.34 16.74375 2.68 17.3625 2 18 C1.01 17.67 0.02 17.34 -1 17 C0.375 15.5 0.375 15.5 2 14 C2.66 14 3.32 14 4 14 C3.91276622 12.22825181 3.80458345 10.45752623 3.6875 8.6875 C3.62949219 7.70136719 3.57148437 6.71523438 3.51171875 5.69921875 C2.95377187 2.75615543 2.31459868 1.81817001 0 0 Z " fill="#1C0539" transform="translate(105,51)"/>
<path d="M0 0 C0.99 0.33 1.98 0.66 3 1 C3 4.63 3 8.26 3 12 C1.35 12.66 -0.3 13.32 -2 14 C-1.34 9.38 -0.68 4.76 0 0 Z " fill="#070B10" transform="translate(106,53)"/>
<path d="M0 0 C1.65 0.33 3.3 0.66 5 1 C4.360625 1.598125 3.72125 2.19625 3.0625 2.8125 C0.12860483 7.34670163 0.18569688 11.69835408 0 17 C-0.33 17 -0.66 17 -1 17 C-1.07347656 15.95199219 -1.07347656 15.95199219 -1.1484375 14.8828125 C-1.26058594 13.51769531 -1.26058594 13.51769531 -1.375 12.125 C-1.44460937 11.22007813 -1.51421875 10.31515625 -1.5859375 9.3828125 C-1.79568132 6.82058097 -1.79568132 6.82058097 -4 5 C-2.68 4.34 -1.36 3.68 0 3 C0 2.01 0 1.02 0 0 Z " fill="#060306" transform="translate(131,104)"/>
<path d="M0 0 C-1.47721422 3.45201639 -3.43794001 5.64961936 -6.125 8.25 C-6.84945312 8.95640625 -7.57390625 9.6628125 -8.3203125 10.390625 C-8.87460938 10.92171875 -9.42890625 11.4528125 -10 12 C-10 7.47026421 -8.55855223 5.63016149 -5.5625 2.25 C-3 0 -3 0 0 0 Z " fill="#7D22DC" transform="translate(75,72)"/>
<path d="M0 0 C2.6015625 -0.29296875 2.6015625 -0.29296875 5.625 -0.1875 C7.12933594 -0.14689453 7.12933594 -0.14689453 8.6640625 -0.10546875 C9.43492188 -0.07066406 10.20578125 -0.03585938 11 0 C10.67 0.99 10.34 1.98 10 3 C6.04 3 2.08 3 -2 3 C-1.34 2.01 -0.68 1.02 0 0 Z " fill="#F9F7F9" transform="translate(117,107)"/>
<path d="M0 0 C2.31 0 4.62 0 7 0 C7 1.65 7 3.3 7 5 C4.69 5 2.38 5 0 5 C0 3.35 0 1.7 0 0 Z " fill="#AA75D9" transform="translate(129,50)"/>
<path d="M0 0 C2.31 0 4.62 0 7 0 C7 1.65 7 3.3 7 5 C4.69 5 2.38 5 0 5 C0 3.35 0 1.7 0 0 Z " fill="#A266CF" transform="translate(124,44)"/>
<path d="M0 0 C0.99 0.33 1.98 0.66 3 1 C2.01 2.485 2.01 2.485 1 4 C-1.62697064 4.22137393 -4.00893964 4.28162025 -6.625 4.1875 C-7.33140625 4.17396484 -8.0378125 4.16042969 -8.765625 4.14648438 C-10.51074128 4.1111104 -12.25546608 4.05730221 -14 4 C-10.57905758 1.71937172 -9.31812778 1.78074993 -5.3125 1.875 C-3.82169922 1.90207031 -3.82169922 1.90207031 -2.30078125 1.9296875 C-1.54152344 1.95289062 -0.78226563 1.97609375 0 2 C0 1.34 0 0.68 0 0 Z " fill="#B182D8" transform="translate(108,89)"/>
<path d="M0 0 C6.93 0.495 6.93 0.495 14 1 C13.67 1.66 13.34 2.32 13 3 C8.05 3 3.1 3 -2 3 C-1.34 2.01 -0.68 1.02 0 0 Z " fill="#B487D9" transform="translate(59,90)"/>
<path d="M0 0 C1.4540625 0.0309375 1.4540625 0.0309375 2.9375 0.0625 C2.9375 0.3925 2.9375 0.7225 2.9375 1.0625 C1.2875 1.0625 -0.3625 1.0625 -2.0625 1.0625 C-2.0625 3.0425 -2.0625 5.0225 -2.0625 7.0625 C-0.0825 7.0625 1.8975 7.0625 3.9375 7.0625 C1.9375 9.0625 1.9375 9.0625 -1.1875 9.1875 C-2.610625 9.125625 -2.610625 9.125625 -4.0625 9.0625 C-4.16015625 2.91015625 -4.16015625 2.91015625 -4.0625 1.0625 C-3.0625 0.0625 -3.0625 0.0625 0 0 Z " fill="#090019" transform="translate(126.0625,41.9375)"/>
<path d="M0 0 C0.89589844 0.00322266 1.79179688 0.00644531 2.71484375 0.00976562 C4.12056641 0.02233398 4.12056641 0.02233398 5.5546875 0.03515625 C6.49957031 0.03966797 7.44445312 0.04417969 8.41796875 0.04882812 C10.75527137 0.06063268 13.09244811 0.07709866 15.4296875 0.09765625 C15.4296875 0.42765625 15.4296875 0.75765625 15.4296875 1.09765625 C9.1596875 1.09765625 2.8896875 1.09765625 -3.5703125 1.09765625 C-3.9003125 2.41765625 -4.2303125 3.73765625 -4.5703125 5.09765625 C-5.2303125 5.09765625 -5.8903125 5.09765625 -6.5703125 5.09765625 C-6.5703125 3.77765625 -6.5703125 2.45765625 -6.5703125 1.09765625 C-4.16971433 -0.10264283 -2.67670601 -0.01694118 0 0 Z " fill="#030200" transform="translate(91.5703125,104.90234375)"/>
<path d="M0 0 C0.33 0 0.66 0 1 0 C1.125 3.375 1.125 3.375 1 7 C0.34 7.66 -0.32 8.32 -1 9 C-2.32 9 -3.64 9 -5 9 C-3.75471468 5.55151758 -2.38532951 2.80016942 0 0 Z " fill="#9043D2" transform="translate(51,43)"/>
<path d="M0 0 C10.15317287 -0.63019694 10.15317287 -0.63019694 13.6875 2 C14.120625 2.66 14.55375 3.32 15 4 C12.03 4 9.06 4 6 4 C6 3.34 6 2.68 6 2 C3.03 1.505 3.03 1.505 0 1 C0 0.67 0 0.34 0 0 Z " fill="#F3F0F3" transform="translate(115,123)"/>
<path d="M0 0 C1.32 0 2.64 0 4 0 C5.2077558 3.62326739 4.54311128 4.64146369 3 8 C2.01 7.67 1.02 7.34 0 7 C0 4.69 0 2.38 0 0 Z " fill="#9C36F3" transform="translate(52,43)"/>
<path d="M0 0 C0 0.99 0 1.98 0 3 C-1.96875 4.82421875 -1.96875 4.82421875 -4.5 6.6875 C-5.3353125 7.31011719 -6.170625 7.93273437 -7.03125 8.57421875 C-7.6809375 9.04472656 -8.330625 9.51523438 -9 10 C-9.66 9.67 -10.32 9.34 -11 9 C-9.54782324 7.49403892 -8.08807139 5.99537896 -6.625 4.5 C-5.40683594 3.24703125 -5.40683594 3.24703125 -4.1640625 1.96875 C-2 0 -2 0 0 0 Z " fill="#CB74FE" transform="translate(110,77)"/>
<path d="M0 0 C0.99 0 1.98 0 3 0 C3 0.99 3 1.98 3 3 C2.34 3 1.68 3 1 3 C1.66 5.64 2.32 8.28 3 11 C2.01 11 1.02 11 0 11 C-0.19491452 9.54263913 -0.38069358 8.08405407 -0.5625 6.625 C-0.66691406 5.81289063 -0.77132812 5.00078125 -0.87890625 4.1640625 C-1 2 -1 2 0 0 Z " fill="#200B29" transform="translate(102,54)"/>
<path d="M0 0 C2.875 2 2.875 2 5 4 C4.67 4.66 4.34 5.32 4 6 C3.608125 5.525625 3.21625 5.05125 2.8125 4.5625 C0.59191626 2.64820367 -1.13375709 2.38733012 -4 2 C-4.33 2.66 -4.66 3.32 -5 4 C-5.99 3.01 -6.98 2.02 -8 1 C-5.14675563 -0.42662219 -3.16545451 -0.31033868 0 0 Z " fill="#7112D6" transform="translate(114,49)"/>
<path d="M0 0 C1.22589844 0.01353516 1.22589844 0.01353516 2.4765625 0.02734375 C3.41628906 0.04474609 3.41628906 0.04474609 4.375 0.0625 C1.81508376 2.07386276 -0.67090299 3.69095496 -3.625 5.0625 C-3.625 4.0725 -3.625 3.0825 -3.625 2.0625 C-4.615 1.7325 -5.605 1.4025 -6.625 1.0625 C-4.21954362 -0.14022819 -2.67503047 -0.03821472 0 0 Z " fill="#7F34D4" transform="translate(63.625,37.9375)"/>
<path d="M0 0 C1.98 0 3.96 0 6 0 C5.34 1.98 4.68 3.96 4 6 C2.68 5.34 1.36 4.68 0 4 C0 2.68 0 1.36 0 0 Z " fill="#8E28F6" transform="translate(60,80)"/>
<path d="M0 0 C0.33 0 0.66 0 1 0 C1.19294408 4.82360189 0.75747614 8.49646738 -1 13 C-1.66 12.67 -2.32 12.34 -3 12 C-2.69230293 10.18667846 -2.37870936 8.37435655 -2.0625 6.5625 C-1.80146484 5.04849609 -1.80146484 5.04849609 -1.53515625 3.50390625 C-1 1 -1 1 0 0 Z " fill="#C08ADC" transform="translate(130,57)"/>
<path d="M0 0 C1.98 0 3.96 0 6 0 C6 1.32 6 2.64 6 4 C4.02 4 2.04 4 0 4 C0 2.68 0 1.36 0 0 Z " fill="#A069C4" transform="translate(137,56)"/>
<path d="M0 0 C1.65 0.33 3.3 0.66 5 1 C4.01 1.495 4.01 1.495 3 2 C2.30906104 4.57951874 2.30906104 4.57951874 1.875 7.5625 C1.70742187 8.57441406 1.53984375 9.58632813 1.3671875 10.62890625 C1.24601562 11.41136719 1.12484375 12.19382812 1 13 C0.34 12.67 -0.32 12.34 -1 12 C-1.02698189 10.37509046 -1.04638757 8.75005367 -1.0625 7.125 C-1.07410156 6.22007813 -1.08570312 5.31515625 -1.09765625 4.3828125 C-1 2 -1 2 0 0 Z " fill="#C06EFB" transform="translate(120,52)"/>
<path d="M0 0 C1.98 0 3.96 0 6 0 C6 1.32 6 2.64 6 4 C4.02 4 2.04 4 0 4 C0 2.68 0 1.36 0 0 Z " fill="#A369D2" transform="translate(134,43)"/>
<path d="M0 0 C0 4.71428571 0 4.71428571 -1 7 C-4.0625 8.75 -4.0625 8.75 -7 10 C-5.6062718 5.56541027 -3.39417765 3.12621626 0 0 Z " fill="#200C30" transform="translate(85,78)"/>
<path d="M0 0 C0.99 0.66 1.98 1.32 3 2 C2.34 3.32 1.68 4.64 1 6 C0.01 6 -0.98 6 -2 6 C-2.33 4.35 -2.66 2.7 -3 1 C-2.01 0.67 -1.02 0.34 0 0 Z " fill="#8C2BF5" transform="translate(100,79)"/>
<path d="M0 0 C0.66 0.33 1.32 0.66 2 1 C1.67 1.99 1.34 2.98 1 4 C2.32 4 3.64 4 5 4 C4.34 5.32 3.68 6.64 3 8 C1.35 6.35 -0.3 4.7 -2 3 C-1.34 2.01 -0.68 1.02 0 0 Z " fill="#7118D4" transform="translate(90,41)"/>
<path d="M0 0 C1.32 0.33 2.64 0.66 4 1 C2.02 3.31 0.04 5.62 -2 8 C-3.24546405 5.50907189 -2.7767578 4.58919267 -2 2 C-1.34 2 -0.68 2 0 2 C0 1.34 0 0.68 0 0 Z " fill="#140C28" transform="translate(50,40)"/>
<path d="M0 0 C0.33 0.99 0.66 1.98 1 3 C1.99 3.33 2.98 3.66 4 4 C3.01 4.66 2.02 5.32 1 6 C0.26393501 9.56769552 0.26393501 9.56769552 0 13 C-0.33 13 -0.66 13 -1 13 C-1.02708567 11.39592672 -1.04643483 9.7917215 -1.0625 8.1875 C-1.07410156 7.29417969 -1.08570313 6.40085937 -1.09765625 5.48046875 C-1 3 -1 3 0 0 Z " fill="#030303" transform="translate(63,108)"/>
<path d="M0 0 C0 0.66 0 1.32 0 2 C-1.98 2.66 -3.96 3.32 -6 4 C-6 3.34 -6 2.68 -6 2 C-6.66 1.67 -7.32 1.34 -8 1 C-4.93251126 -0.86240388 -3.40254489 -1.2151946 0 0 Z " fill="#9136EC" transform="translate(97,86)"/>
<path d="M0 0 C1.2065625 0.0309375 1.2065625 0.0309375 2.4375 0.0625 C0.79580472 2.08304804 -0.87161778 4.08293058 -2.5625 6.0625 C-2.8925 6.0625 -3.2225 6.0625 -3.5625 6.0625 C-3.605221 4.39638095 -3.60313832 2.72867115 -3.5625 1.0625 C-2.5625 0.0625 -2.5625 0.0625 0 0 Z " fill="#280A37" transform="translate(53.5625,83.9375)"/>
<path d="M0 0 C0 3.90838866 -1.50567876 5.11594107 -4 8 C-4.99 7.67 -5.98 7.34 -7 7 C-4.69 4.69 -2.38 2.38 0 0 Z " fill="#1C0C25" transform="translate(121,79)"/>
<path d="M0 0 C1.32 0 2.64 0 4 0 C4 1.65 4 3.3 4 5 C2.68 4.67 1.36 4.34 0 4 C0 2.68 0 1.36 0 0 Z " fill="#8207F2" transform="translate(74,51)"/>
<path d="M0 0 C0.33 0.99 0.66 1.98 1 3 C-0.65 4.65 -2.3 6.3 -4 8 C-4 6.02 -4 4.04 -4 2 C-2.68 1.34 -1.36 0.68 0 0 Z " fill="#C188E9" transform="translate(68,48)"/>
<path d="M0 0 C1.04449911 3.13349732 0.93423645 3.98968256 0 7 C0.66 7 1.32 7 2 7 C2 7.66 2 8.32 2 9 C1.01 8.67 0.02 8.34 -1 8 C-2.1875 5.4375 -2.1875 5.4375 -3 3 C-2.01 2.01 -1.02 1.02 0 0 Z " fill="#7C1ED9" transform="translate(109,66)"/>
<path d="M0 0 C2.56687367 3.8503105 1.83288724 5.58569763 1 10 C-1.56687367 6.1496895 -0.83288724 4.41430237 0 0 Z " fill="#151314" transform="translate(106,115)"/>
<path d="M0 0 C0.99 0.33 1.98 0.66 3 1 C3 1.66 3 2.32 3 3 C3.66 3 4.32 3 5 3 C5 3.66 5 4.32 5 5 C3.0625 5.5625 3.0625 5.5625 1 6 C0 5 0 5 -0.0625 2.4375 C-0.041875 1.633125 -0.02125 0.82875 0 0 Z " fill="#131313" transform="translate(37,115)"/>
</svg>
